<svg id="图层_1" data-name="图层 1" xmlns="http://www.w3.org/2000/svg" xmlns:xlink="http://www.w3.org/1999/xlink" viewBox="0 0 200 200"><defs><style>.cls-1{fill:url(#未命名的渐变_90);}.cls-2{fill:url(#未命名的渐变_86);}.cls-3{fill:url(#未命名的渐变_86-2);}.cls-4{fill:url(#未命名的渐变_86-3);}.cls-5{fill:url(#未命名的渐变_94);}</style><linearGradient id="未命名的渐变_90" x1="8.81" y1="260.52" x2="52.54" y2="97.75" gradientUnits="userSpaceOnUse"><stop offset="0" stop-color="#ffce00"/><stop offset="0.26" stop-color="#c9228b"/><stop offset="0.51" stop-color="#7b4fff"/><stop offset="0.78" stop-color="#0089f3"/></linearGradient><linearGradient id="未命名的渐变_86" x1="115.47" y1="94.87" x2="261.66" y2="482.74" gradientUnits="userSpaceOnUse"><stop offset="0" stop-color="#ffce00"/><stop offset="0.26" stop-color="#c9228b"/><stop offset="0.51" stop-color="#7b4fff"/><stop offset="0.78" stop-color="#0089f3"/><stop offset="1" stop-color="#00efbe"/></linearGradient><linearGradient id="未命名的渐变_86-2" x1="71.92" y1="286.18" x2="90.15" y2="40.12" xlink:href="#未命名的渐变_86"/><linearGradient id="未命名的渐变_86-3" x1="167.65" y1="196.33" x2="-36.13" y2="39.7" xlink:href="#未命名的渐变_86"/><linearGradient id="未命名的渐变_94" x1="163.38" y1="4.4" x2="109.14" y2="78.66" gradientUnits="userSpaceOnUse"><stop offset="0" stop-color="#0089f3"/><stop offset="1" stop-color="#00efbe"/></linearGradient></defs><path class="cls-1" d="M37.08,101c11.86-39,50-50.58,68.48-53.95a189.07,189.07,0,0,1-6.66-36.8c-.36,3.47-2.26,3.55-2.68,3.59-41.59,4-73.43,32.69-82.78,70.28a96.89,96.89,0,0,0-2.14,34.62c4,34.25,27.56,62.57,58.3,74.79C31.76,171,30.25,123.39,37.08,101Z"/><path class="cls-2" d="M178.06,148.56A35.71,35.71,0,0,0,168,118.44c-21.66-22.45-58.08-8.93-61.85-3.28,6.22-.41,10.39-1.12,14.5-.88,13.55.8,19.9,14,12.32,25.17-8.9,13.16-27.09,18.43-42.21,12.22-.35-.14-.7-.3-1-.45C104.37,159.84,140.38,175.35,178.06,148.56Z"/><path class="cls-3" d="M68.53,119.59a32,32,0,0,1,.59-6.67C72.7,94.81,86.69,89,105.7,89.08c9.46,0,31.09-.34,31.09-.34C120.33,83.11,110.93,65,105.56,47c-18.49,3.37-56.62,15-68.48,54-6.83,22.42-5.32,70,32.52,92.53A90.78,90.78,0,0,0,101.12,200C64.2,179.48,65.51,138.83,68.53,119.59Z"/><path class="cls-4" d="M89.71,151.22a35.9,35.9,0,0,1-21.18-31.63c-3,19.24-4.33,59.89,32.59,80.38a86.56,86.56,0,0,0,9.23-.25,104,104,0,0,0,18.2-3.17c29.31-8.58,46.94-28.44,49.51-48C140.38,175.35,104.37,159.84,89.71,151.22Z"/><path class="cls-5" d="M143.62,92.42c17.69-.14,45.64-4.28,45.73-9.23C191.26-20.08,84.56,2,84.5,2a7.64,7.64,0,0,0-6.82,9c.87,5,6.8,19.39,11.9,32C95.32,57.11,103.23,92.75,143.62,92.42Z"/></svg>